<svg viewBox="0 0 25 25" xmlns="http://www.w3.org/2000/svg"><path fill="#FFF" d="M0 0h25v25H0z"/><path fill="#000111" d="M6.47 4.96h.75v-.75h.76v-.76h2.26v.76h.75v.75h.76v1.5h.75v-3h.75V5.7h.76v.76h-.76v3.77h.76v.75h-.76v2.26h.76V14h-.76v1.5h1.51v.76h1.51V12.5h-.75v-.75h.75V9.48h-.75v-.75h.75V5.71h-.75v-.75h-.76v-.75h.76v-.76h1.5v.76h1.51v.75h.76v10.56h-.76v.75h-.75v.75h-1.51v.76h-.75v.75H14v-.75h-.76v3.77H8.73v-4.53h-.75v-.75h.75V12.5h-1.5v.75h-.76V11h.75v-.75h.76v-.76h.75V5.71h-1.5v.76h-.76zM5.7 19.29v-.76h.76v.76zm0-12.07v-.75h.76v.75zm.76 11.31v-.75h.75v.75zm.75-.75v-.76h.76v.76zm4.53 3.01h.75V7.22h-.75zM14 13.25v-.75h1.5v.75zm0-3.01v-.76h1.5v.76zm0-4.53v-.75h.75v.75z"/></svg>